<?xml version="1.0" encoding="UTF-8" standalone="no"?><svg xmlns="http://www.w3.org/2000/svg" xmlns:xlink="http://www.w3.org/1999/xlink" contentScriptType="application/ecmascript" contentStyleType="text/css" height="672px" preserveAspectRatio="none" style="width:1024px;height:672px;background:#FAFAFA;" version="1.1" viewBox="0 0 1024 672" width="1024px" zoomAndPan="magnify"><defs/><g><text fill="#000000" font-family="sans-serif" font-size="11" lengthAdjust="spacingAndGlyphs" textLength="348" x="342" y="11.7589">Group 3 - State Machines (v5: User Account + Reservation Lifecycle)</text><rect fill="#FEFECE" height="50" rx="12.5" ry="12.5" style="stroke: #D0D5DD; stroke-width: 1.5;" width="333" x="58.35" y="118.9819"/><line style="stroke: #D0D5DD; stroke-width: 1.5;" x1="58.35" x2="391.35" y1="143.9638" y2="143.9638"/><text fill="#1F2937" font-family="sans-serif" font-size="11" font-weight="bold" lengthAdjust="spacingAndGlyphs" textLength="313" x="68.35" y="135.7408">EMAIL_PENDING : account created, awaiting email verify</text><rect fill="#FEFECE" height="50" rx="12.5" ry="12.5" style="stroke: #D0D5DD; stroke-width: 1.5;" width="171" x="38.35" y="244.9819"/><line style="stroke: #D0D5DD; stroke-width: 1.5;" x1="38.35" x2="209.35" y1="269.9638" y2="269.9638"/><text fill="#1F2937" font-family="sans-serif" font-size="11" font-weight="bold" lengthAdjust="spacingAndGlyphs" textLength="151" x="48.35" y="261.7408">ACTIVE : verified, full access</text><rect fill="#FEFECE" height="50" rx="12.5" ry="12.5" style="stroke: #D0D5DD; stroke-width: 1.5;" width="203" x="164.35" y="404.9819"/><line style="stroke: #D0D5DD; stroke-width: 1.5;" x1="164.35" x2="367.35" y1="429.9638" y2="429.9638"/><text fill="#1F2937" font-family="sans-serif" font-size="11" font-weight="bold" lengthAdjust="spacingAndGlyphs" textLength="183" x="174.35" y="421.7408">SUSPENDED : by admin, read-only</text><rect fill="#FEFECE" height="50" rx="12.5" ry="12.5" style="stroke: #D0D5DD; stroke-width: 1.5;" width="218" x="141.85" y="530.9819"/><line style="stroke: #D0D5DD; stroke-width: 1.5;" x1="141.85" x2="359.85" y1="555.9638" y2="555.9638"/><text fill="#1F2937" font-family="sans-serif" font-size="11" font-weight="bold" lengthAdjust="spacingAndGlyphs" textLength="198" x="151.85" y="547.7408">DELETED : self-deletion, PII removed</text><ellipse cx="375.85" cy="32.9819" fill="#000000" rx="10" ry="10" style="stroke: none; stroke-width: 1.0;"/><ellipse cx="492.85" cy="651.9819" fill="none" rx="10" ry="10" style="stroke: #000000; stroke-width: 1.0;"/><ellipse cx="493.35" cy="652.4819" fill="#000000" rx="6" ry="6" style="stroke: none; stroke-width: 1.0;"/><rect fill="#FEFECE" height="50" rx="12.5" ry="12.5" style="stroke: #D0D5DD; stroke-width: 1.5;" width="203" x="471.35" y="118.9819"/><line style="stroke: #D0D5DD; stroke-width: 1.5;" x1="471.35" x2="674.35" y1="143.9638" y2="143.9638"/><text fill="#1F2937" font-family="sans-serif" font-size="11" font-weight="bold" lengthAdjust="spacingAndGlyphs" textLength="183" x="481.35" y="135.7408">REQUESTED : borrower submitted</text><rect fill="#FEFECE" height="50" rx="12.5" ry="12.5" style="stroke: #D0D5DD; stroke-width: 1.5;" width="179" x="742.35" y="244.9819"/><line style="stroke: #D0D5DD; stroke-width: 1.5;" x1="742.35" x2="921.35" y1="269.9638" y2="269.9638"/><text fill="#1F2937" font-family="sans-serif" font-size="11" font-weight="bold" lengthAdjust="spacingAndGlyphs" textLength="159" x="752.35" y="261.7408">APPROVED : owner approved</text><rect fill="#FEFECE" height="50" rx="12.5" ry="12.5" style="stroke: #D0D5DD; stroke-width: 1.5;" width="146" x="387.85" y="324.9819"/><line style="stroke: #D0D5DD; stroke-width: 1.5;" x1="387.85" x2="533.85" y1="349.9638" y2="349.9638"/><text fill="#1F2937" font-family="sans-serif" font-size="11" font-weight="bold" lengthAdjust="spacingAndGlyphs" textLength="126" x="397.85" y="341.7408">DENIED : owner denied</text><rect fill="#FEFECE" height="50" rx="12.5" ry="12.5" style="stroke: #D0D5DD; stroke-width: 1.5;" width="164" x="759.85" y="404.9819"/><line style="stroke: #D0D5DD; stroke-width: 1.5;" x1="759.85" x2="923.85" y1="429.9638" y2="429.9638"/><text fill="#1F2937" font-family="sans-serif" font-size="11" font-weight="bold" lengthAdjust="spacingAndGlyphs" textLength="144" x="769.85" y="421.7408">PICKED_UP : tool collected</text><rect fill="#FEFECE" height="50" rx="12.5" ry="12.5" style="stroke: #D0D5DD; stroke-width: 1.5;" width="138" x="581.85" y="530.9819"/><line style="stroke: #D0D5DD; stroke-width: 1.5;" x1="581.85" x2="719.85" y1="555.9638" y2="555.9638"/><text fill="#1F2937" font-family="sans-serif" font-size="11" font-weight="bold" lengthAdjust="spacingAndGlyphs" textLength="118" x="591.85" y="547.7408">RETURNED : tool back</text><rect fill="#FEFECE" height="50" rx="12.5" ry="12.5" style="stroke: #D0D5DD; stroke-width: 1.5;" width="213" x="511.35" y="404.9819"/><line style="stroke: #D0D5DD; stroke-width: 1.5;" x1="511.35" x2="724.35" y1="429.9638" y2="429.9638"/><text fill="#1F2937" font-family="sans-serif" font-size="11" font-weight="bold" lengthAdjust="spacingAndGlyphs" textLength="193" x="521.35" y="421.7408">CANCELLED : by borrower or owner</text><!--MD5=[281e93a2e54569d22ab1d222ee851daf]
link *start to UP_EMAIL--><path d="M366.58,37.4519 C351.27,43.4219 320.09,56.5719 296.85,72.9819 C279.67,85.1219 262.69,101.3619 249.54,115.1519 " fill="none" id="*start-&gt;UP_EMAIL" style="stroke: #6B7280; stroke-width: 1.2;"/><polygon fill="#6B7280" points="245.94,118.9619,255.0285,115.1674,249.374,115.3276,249.2137,109.673,245.94,118.9619" style="stroke: #6B7280; stroke-width: 1.2;"/><text fill="#000000" font-family="sans-serif" font-size="11" lengthAdjust="spacingAndGlyphs" textLength="161" x="297.85" y="85.7408">register with invite token (US1)</text><!--MD5=[e20500ea29908113137d6593cdd66a48]
link UP_EMAIL to UP_ACTIVE--><path d="M205.14,169.1819 C188.39,189.7519 164.32,219.3019 146.73,240.9019 " fill="none" id="UP_EMAIL-&gt;UP_ACTIVE" style="stroke: #6B7280; stroke-width: 1.2;"/><polygon fill="#6B7280" points="143.52,244.8419,152.3078,240.3951,146.68,240.967,146.108,235.3391,143.52,244.8419" style="stroke: #6B7280; stroke-width: 1.2;"/><text fill="#000000" font-family="sans-serif" font-size="11" lengthAdjust="spacingAndGlyphs" textLength="92" x="180.85" y="211.7408">verify_email (US2)</text><!--MD5=[71ec4660098fcc1bab0e69d131a96a9f]
link UP_ACTIVE to UP_SUSP--><path d="M187.27,295.0019 C201.74,302.8119 216.03,312.7219 226.85,324.9819 C245.6,346.2119 255.68,377.3219 260.86,399.9819 " fill="none" id="UP_ACTIVE-&gt;UP_SUSP" style="stroke: #6B7280; stroke-width: 1.2;"/><polygon fill="#6B7280" points="261.95,404.9719,263.9293,395.324,260.879,400.0879,256.115,397.0376,261.95,404.9719" style="stroke: #6B7280; stroke-width: 1.2;"/><text fill="#000000" font-family="sans-serif" font-size="11" lengthAdjust="spacingAndGlyphs" textLength="115" x="253.85" y="354.7408">admin.suspend (US30)</text><!--MD5=[256bcbee80d0913b62bdedcf22d1e715]
link UP_SUSP to UP_ACTIVE--><path d="M163.92,407.5119 C132.73,398.7419 104.15,387.6619 94.85,374.9819 C78.65,352.8719 90.42,322.0819 103.5,299.7419 " fill="none" id="UP_SUSP-&gt;UP_ACTIVE" style="stroke: #6B7280; stroke-width: 1.2;"/><polygon fill="#6B7280" points="106.12,295.3919,98.0457,301.0316,103.537,299.673,104.8956,305.1643,106.12,295.3919" style="stroke: #6B7280; stroke-width: 1.2;"/><text fill="#000000" font-family="sans-serif" font-size="11" lengthAdjust="spacingAndGlyphs" textLength="122" x="95.85" y="354.7408">admin.reactivate (US31)</text><!--MD5=[acd50413f04b4fc426a89a8ea04f6302]
link UP_ACTIVE to UP_DEL--><path d="M91.84,295.0319 C48.37,330.6719 -19.89,399.3119 16.85,454.9819 C43.86,495.8919 91.42,520.1219 136.63,534.4519 " fill="none" id="UP_ACTIVE-&gt;UP_DEL" style="stroke: #6B7280; stroke-width: 1.2;"/><polygon fill="#6B7280" points="141.56,535.9819,134.1561,529.4871,136.7861,534.4954,131.7777,537.1253,141.56,535.9819" style="stroke: #6B7280; stroke-width: 1.2;"/><text fill="#000000" font-family="sans-serif" font-size="11" lengthAdjust="spacingAndGlyphs" textLength="128" x="17.85" y="434.7408">self.delete_account (US7)</text><!--MD5=[02eef10a6b826c0957e578f80dd3507e]
link UP_SUSP to UP_DEL--><path d="M256,455.0219 C252.72,464.2319 249.48,474.9319 247.85,484.9819 C245.71,498.2219 245.96,513.0419 246.96,525.6219 " fill="none" id="UP_SUSP-&gt;UP_DEL" style="stroke: #6B7280; stroke-width: 1.2;"/><polygon fill="#6B7280" points="247.42,530.8619,250.6057,521.5425,246.9764,525.8816,242.6372,522.2523,247.42,530.8619" style="stroke: #6B7280; stroke-width: 1.2;"/><text fill="#000000" font-family="sans-serif" font-size="11" lengthAdjust="spacingAndGlyphs" textLength="182" x="248.85" y="497.7408">suspended.delete_account (US7 S5)</text><!--MD5=[1efd40b5d2390cb024dd7ae3086b8154]
link UP_DEL to *end--><path d="M312.86,581.0719 C368.73,602.7719 446.81,633.0919 478.57,645.4319 " fill="none" id="UP_DEL-&gt;*end" style="stroke: #6B7280; stroke-width: 1.2;"/><polygon fill="#6B7280" points="483.6,647.3919,476.6586,640.4049,478.9392,645.5817,473.7624,647.8622,483.6,647.3919" style="stroke: #6B7280; stroke-width: 1.2;"/><!--MD5=[054a9facae6f79e861e23edb81fd3ff8]
link *start to R_REQ--><path d="M385.07,37.5219 C401.33,43.8819 436.05,58.0019 463.85,72.9819 C487.89,85.9219 513.63,102.3319 534.06,116.0019 " fill="none" id="*start-&gt;R_REQ" style="stroke: #6B7280; stroke-width: 1.2;"/><polygon fill="#6B7280" points="538.34,118.8819,533.1099,110.5365,534.193,116.0887,528.6407,117.1718,538.34,118.8819" style="stroke: #6B7280; stroke-width: 1.2;"/><text fill="#000000" font-family="sans-serif" font-size="11" lengthAdjust="spacingAndGlyphs" textLength="166" x="491.85" y="85.7408">borrower.create_request (US13)</text><!--MD5=[28a5573680d3ec44a59d7932e3f65ff6]
link R_REQ to R_APP--><path d="M623.1,169.0419 C667.19,190.1419 731.19,220.7919 776.69,242.5719 " fill="none" id="R_REQ-&gt;R_APP" style="stroke: #6B7280; stroke-width: 1.2;"/><polygon fill="#6B7280" points="781.31,244.7819,774.9141,237.2924,776.7986,242.6261,771.4649,244.5106,781.31,244.7819" style="stroke: #6B7280; stroke-width: 1.2;"/><text fill="#000000" font-family="sans-serif" font-size="11" lengthAdjust="spacingAndGlyphs" textLength="116" x="718.85" y="211.7408">owner.approve (US14)</text><!--MD5=[81292fc33781bdbddf8ba127f8b63b82]
link R_REQ to R_DEN--><path d="M490.9,169.0919 C477.78,176.5719 465.9,186.3219 457.85,198.9819 C434.72,235.4019 442.78,287.4919 451.35,319.7219 " fill="none" id="R_REQ-&gt;R_DEN" style="stroke: #6B7280; stroke-width: 1.2;"/><polygon fill="#6B7280" points="452.73,324.7219,454.1991,314.9832,451.4036,319.901,446.4857,317.1055,452.73,324.7219" style="stroke: #6B7280; stroke-width: 1.2;"/><text fill="#000000" font-family="sans-serif" font-size="11" lengthAdjust="spacingAndGlyphs" textLength="98" x="458.85" y="211.7408">owner.deny (US14)</text><!--MD5=[74c50a956d9260f0e8bd8665486a10c1]
link R_REQ to R_CAN--><path d="M576.69,169.1919 C584.93,221.1719 604.27,343.2819 613.2,399.5919 " fill="none" id="R_REQ-&gt;R_CAN" style="stroke: #6B7280; stroke-width: 1.2;"/><polygon fill="#6B7280" points="614.03,404.8319,616.5901,395.3216,613.2568,399.892,608.6864,396.5587,614.03,404.8319" style="stroke: #6B7280; stroke-width: 1.2;"/><text fill="#000000" font-family="sans-serif" font-size="11" lengthAdjust="spacingAndGlyphs" textLength="121" x="596.85" y="274.7408">borrower.cancel (US15)</text><!--MD5=[ac59768fbcb0613b85c41b43b120d577]
link R_APP to R_PU--><path d="M833.39,295.3219 C835.18,323.4719 838.11,369.7819 840.01,399.8319 " fill="none" id="R_APP-&gt;R_PU" style="stroke: #6B7280; stroke-width: 1.2;"/><polygon fill="#6B7280" points="840.33,404.8719,843.7559,395.6381,840.0154,399.8818,835.7717,396.1414,840.33,404.8719" style="stroke: #6B7280; stroke-width: 1.2;"/><text fill="#000000" font-family="sans-serif" font-size="11" lengthAdjust="spacingAndGlyphs" textLength="174" x="838.85" y="354.7408">borrower.mark_picked_up (US17)</text><!--MD5=[159aa47f341ceca872e00c0db350e9a3]
link R_APP to R_CAN--><path d="M778.61,295.0419 C761.79,303.5619 743.52,313.8419 727.85,324.9819 C696.27,347.4419 664.57,378.5319 643.37,400.8619 " fill="none" id="R_APP-&gt;R_CAN" style="stroke: #6B7280; stroke-width: 1.2;"/><polygon fill="#6B7280" points="639.8,404.6519,648.8811,400.8395,643.2268,401.0109,643.0555,395.3566,639.8,404.6519" style="stroke: #6B7280; stroke-width: 1.2;"/><text fill="#000000" font-family="sans-serif" font-size="11" lengthAdjust="spacingAndGlyphs" textLength="97" x="728.85" y="354.7408">cancel (US15/US16)</text><!--MD5=[1f2527d257e01401b28318855733c9a1]
link R_PU to R_RET--><path d="M759.57,451.6719 C704.17,465.7919 640.84,482.3919 638.85,484.9819 C630.02,496.4719 631.83,512.1719 636.37,525.7919 " fill="none" id="R_PU-&gt;R_RET" style="stroke: #6B7280; stroke-width: 1.2;"/><polygon fill="#6B7280" points="638.15,530.7019,638.8503,520.878,636.4493,526,631.3273,523.599,638.15,530.7019" style="stroke: #6B7280; stroke-width: 1.2;"/><text fill="#000000" font-family="sans-serif" font-size="11" lengthAdjust="spacingAndGlyphs" textLength="168" x="639.85" y="497.7408">borrower.mark_returned (US20)</text><!--MD5=[1f2527d257e01401b28318855733c9a1]
link R_PU to R_RET--><path d="M837.25,455.0019 C833.2,470.0719 825.85,488.8819 812.85,500.9819 C788.96,523.2319 755.65,536.3319 725.44,544.0419 " fill="none" id="R_PU-&gt;R_RET-1" style="stroke: #6B7280; stroke-width: 1.2;"/><polygon fill="#6B7280" points="720.23,545.3219,729.9279,547.0398,725.0832,544.1193,728.0038,539.2747,720.23,545.3219" style="stroke: #6B7280; stroke-width: 1.2;"/><text fill="#000000" font-family="sans-serif" font-size="11" lengthAdjust="spacingAndGlyphs" textLength="163" x="824.85" y="497.7408">admin.force_resolved (US20 S8)</text><!--MD5=[3fb2defbc78730de69088a2236c9154e]
link R_DEN to *end--><path d="M463.42,375.0219 C469.8,434.8719 486.26,589.1119 491.34,636.7519 " fill="none" id="R_DEN-&gt;*end" style="stroke: #6B7280; stroke-width: 1.2;"/><polygon fill="#6B7280" points="491.87,641.7719,494.8694,632.3909,491.3272,636.8014,486.9167,633.2593,491.87,641.7719" style="stroke: #6B7280; stroke-width: 1.2;"/><!--MD5=[c3deaa7817e3ff48f048ef95b3a8c7a5]
link R_RET to *end--><path d="M610.17,581.1919 C575.51,601.8119 527.87,630.1519 505.47,643.4819 " fill="none" id="R_RET-&gt;*end" style="stroke: #6B7280; stroke-width: 1.2;"/><polygon fill="#6B7280" points="501.08,646.0819,510.86,644.9197,505.3775,643.5262,506.771,638.0437,501.08,646.0819" style="stroke: #6B7280; stroke-width: 1.2;"/><!--MD5=[a711127cdb553bc1b26d6d6297119ca4]
link R_CAN to *end--><path d="M604,455.3619 C577.46,502.0719 520.31,602.6619 500.11,638.2119 " fill="none" id="R_CAN-&gt;*end" style="stroke: #6B7280; stroke-width: 1.2;"/><polygon fill="#6B7280" points="497.4,642.9719,505.3196,637.117,499.8669,638.6228,498.3611,633.17,497.4,642.9719" style="stroke: #6B7280; stroke-width: 1.2;"/><!--MD5=[2d9e4f39b9ce0230b89eb74362a5fd12]
@startuml state_machine
skinparam backgroundColor #FAFAFA
skinparam defaultFontSize 11
skinparam shadowing false
skinparam state {
  BorderColor #D0D5DD
  FontColor #1F2937
  FontStyle bold
}
skinparam arrow {
  Color #6B7280
  Thickness 1.2
}

title Group 3 - State Machines (v5: User Account + Reservation Lifecycle)

state "EMAIL_PENDING : account created, awaiting email verify" as UP_EMAIL
state "ACTIVE : verified, full access" as UP_ACTIVE
state "SUSPENDED : by admin, read-only" as UP_SUSP
state "DELETED : self-deletion, PII removed" as UP_DEL

[*]        - -> UP_EMAIL    : register with invite token (US1)
UP_EMAIL   - -> UP_ACTIVE   : verify_email (US2)
UP_ACTIVE  - -> UP_SUSP     : admin.suspend (US30)
UP_SUSP    - -> UP_ACTIVE   : admin.reactivate (US31)
UP_ACTIVE  - -> UP_DEL      : self.delete_account (US7)
UP_SUSP    - -> UP_DEL      : suspended.delete_account (US7 S5)
UP_DEL     - -> [*]

state "REQUESTED : borrower submitted" as R_REQ
state "APPROVED : owner approved" as R_APP
state "DENIED : owner denied" as R_DEN
state "PICKED_UP : tool collected" as R_PU
state "RETURNED : tool back" as R_RET
state "CANCELLED : by borrower or owner" as R_CAN

[*]          - -> R_REQ    : borrower.create_request (US13)
R_REQ        - -> R_APP    : owner.approve (US14)
R_REQ        - -> R_DEN    : owner.deny (US14)
R_REQ        - -> R_CAN    : borrower.cancel (US15)
R_APP        - -> R_PU     : borrower.mark_picked_up (US17)
R_APP        - -> R_CAN    : cancel (US15/US16)
R_PU         - -> R_RET    : borrower.mark_returned (US20)
R_PU         - -> R_RET    : admin.force_resolved (US20 S8)
R_DEN        - -> [*]
R_RET        - -> [*]
R_CAN        - -> [*]

@enduml

PlantUML version 1.2020.02(Sun Mar 01 00:22:07 HST 2020)
(GPL source distribution)
Java Runtime: OpenJDK Runtime Environment
JVM: OpenJDK 64-Bit Server VM
Java Version: 21.0.10+7-Ubuntu-124.04
Operating System: Linux
Default Encoding: UTF-8
Language: en
Country: US
--></g></svg>